# xmcd
#
# Track frame offsets:
#	150
#	13302
#	30282
#	41104
#	51795
#	62457
#	76163
#	87461
#	101249
#	115355
#	128877
#	142232
#	152598
#	166151
#	180149
#	195375
#	209563
#	222728
#	236254
#	248916
#
# Disc length: 3476
#
# Revision: 2
# Processed by: cddbd v1.5.1PL0 Copyright (c) Steve Scherf et al.
# Submitted via: CDex 1.40Beta4
# Normalized: r1:DSETVAR1,TDELIM( - )
#
DISCID=150d9214
DTITLE=Various Artist - Remembering the Fifties
DYEAR=2001
DGENRE=Country
TTITLE0=Ames  Brothers - You, You, You
TTITLE1=Doris Day - Secret Love
TTITLE2=Chordettes - Mr. Sandman
TTITLE3=Dean Martin - Memories Are Made Of This
TTITLE4=Everyly Brohters - All I Have To Do Is Dream
TTITLE5=Four Aces - Love Is A Many Splendored Thing
TTITLE6=Guy Mitchell - Singing The Blues
TTITLE7=Jo Stafford - You Belong To Me
TTITLE8=Johnny Ray - Cry
TTITLE9=Kitty Kallen - Little Things Mean A Lot
TTITLE10=Les Paul and Mary Ford - Vaya Con Dios
TTITLE11=Pat Boone - Love Letters In The Sand
TTITLE12=McGuire Sisters - Sincerely
TTITLE13=Pattie Page - Tennesse Waltz
TTITLE14=Percy Faith - Songs From Moulin Rouge
TTITLE15=Perry Como - Wanted
TTITLE16=Rosemary Clooney - Hey There
TTITLE17=Teresa Brewer - Till I Waltz Again With You
TTITLE18=Platters - My Prayer
TTITLE19=Tommy Edward - It's All In The Game
EXTD=YEAR: 2001 ID3G:   2
EXTT0=
EXTT1=
EXTT2=
EXTT3=
EXTT4=
EXTT5=
EXTT6=
EXTT7=
EXTT8=
EXTT9=
EXTT10=
EXTT11=
EXTT12=
EXTT13=
EXTT14=
EXTT15=
EXTT16=
EXTT17=
EXTT18=
EXTT19=
PLAYORDER=
